<?xml version="1.0" standalone="no"?>
<!DOCTYPE svg PUBLIC "-//W3C//DTD SVG 20010904//EN"
 "http://www.w3.org/TR/2001/REC-SVG-20010904/DTD/svg10.dtd">
<svg version="1.0" xmlns="http://www.w3.org/2000/svg"
 width="722.000000pt" height="722.000000pt" viewBox="0 0 722.000000 722.000000"
 preserveAspectRatio="xMidYMid meet">
<metadata>
Created by potrace 1.14, written by Peter Selinger 2001-2017
</metadata>
<g transform="translate(0.000000,722.000000) scale(0.100000,-0.100000)"
fill="#000000" stroke="none">
<path d="M3398 7215 c-1 -1 -42 -5 -89 -9 -47 -4 -95 -8 -106 -10 -11 -3 -44
-7 -73 -11 -29 -4 -62 -9 -74 -11 -12 -2 -37 -7 -56 -10 -126 -23 -324 -74
-460 -121 -293 -99 -633 -271 -855 -430 -33 -23 -71 -51 -85 -60 -220 -159
-531 -461 -676 -658 -16 -22 -37 -49 -47 -60 -10 -11 -54 -74 -98 -140 -44
-66 -83 -124 -87 -130 -34 -46 -174 -312 -227 -430 -108 -239 -223 -605 -260
-822 -6 -38 -13 -82 -20 -120 -2 -16 -7 -48 -10 -73 -3 -25 -8 -61 -10 -80
-26 -191 -26 -772 -1 -851 3 -8 7 -40 10 -72 7 -69 24 -181 31 -199 3 -7 7
-28 10 -45 3 -18 7 -46 10 -61 7 -49 64 -251 101 -367 102 -311 255 -626 437
-896 84 -126 202 -282 266 -353 85 -94 150 -162 205 -215 32 -31 76 -73 98
-94 92 -91 475 -377 504 -377 4 0 15 -7 25 -16 41 -37 368 -200 519 -259 252
-98 511 -167 759 -201 25 -3 57 -8 71 -10 169 -28 638 -25 845 5 381 56 694
152 1030 316 151 74 357 191 363 207 2 4 8 8 13 8 12 0 256 175 279 200 3 3
25 22 50 42 146 119 387 364 465 472 11 16 26 34 33 42 19 20 74 93 112 149
18 28 36 52 40 55 7 6 121 189 163 262 132 229 300 644 352 868 1 8 10 42 18
75 24 93 71 348 81 440 28 252 28 729 1 874 -1 9 -6 42 -9 74 -4 32 -14 95
-22 140 -8 45 -17 93 -19 107 -2 14 -22 95 -44 180 -54 210 -126 418 -202 585
-13 28 -24 52 -24 55 -6 29 -110 221 -194 358 -31 51 -61 101 -67 112 -6 11
-18 28 -27 38 -10 10 -17 23 -17 29 0 6 -3 13 -7 15 -5 2 -41 48 -82 103 -86
115 -135 175 -207 251 -28 30 -50 54 -48 54 3 0 -145 144 -215 210 -15 14 -43
37 -63 52 -20 15 -43 34 -51 43 -25 24 -177 138 -258 193 -451 303 -984 501
-1494 557 -33 4 -73 9 -90 12 -33 5 -511 13 -517 8z m992 -877 c0 -4 -4 -8 -9
-8 -6 0 -12 4 -15 8 -3 5 1 9 9 9 8 0 15 -4 15 -9z m610 -2178 c-8 -5 -19 -10
-25 -10 -5 0 -3 5 5 10 8 5 20 10 25 10 6 0 3 -5 -5 -10z m-35 -79 c3 -5 2
-12 -3 -15 -5 -3 -9 1 -9 9 0 17 3 19 12 6z m74 -353 c13 -20 12 -22 -1 -11
-8 7 -17 11 -20 8 -2 -3 -5 2 -5 10 0 21 10 19 26 -7z m48 -383 c0 -8 -4 -12
-9 -9 -5 3 -6 10 -3 15 9 13 12 11 12 -6z m-57 -65 c0 -5 -5 -10 -11 -10 -5 0
-7 5 -4 10 3 6 8 10 11 10 2 0 4 -4 4 -10z m-60 -104 c0 -2 -8 -10 -17 -17
-16 -13 -17 -12 -4 4 13 16 21 21 21 13z m-2360 -656 c0 -5 -2 -10 -4 -10 -3
0 -8 5 -11 10 -3 6 -1 10 4 10 6 0 11 -4 11 -10z m65 -100 c10 -11 16 -20 13
-20 -3 0 -13 9 -23 20 -10 11 -16 20 -13 20 3 0 13 -9 23 -20z"/>
</g>
</svg>
